<svg xmlns="http://www.w3.org/2000/svg" xmlns:xlink="http://www.w3.org/1999/xlink" viewBox="0 0 2149.41 2149.41"><defs><style>.cls-1,.cls-4{mix-blend-mode:multiply;}.cls-1{fill:url(#linear-gradient);}.cls-2{isolation:isolate;}.cls-3{mask:url(#mask);}.cls-4{opacity:0.5;fill:transparent;}.cls-5{fill:url(#radial-gradient-2);}.cls-6{fill:url(#linear-gradient-2);}.cls-7{fill:url(#linear-gradient-3);}.cls-8{fill:#de9400;mix-blend-mode:soft-light;}.cls-9{fill:url(#linear-gradient-4);}.cls-10{fill:url(#linear-gradient-5);}.cls-11{mix-blend-mode:overlay;}.cls-12{fill:transparent;}.cls-13{mix-blend-mode:color-dodge;}.cls-14{fill:transparent;}</style><linearGradient id="linear-gradient" x1="1146.05" y1="2159.05" x2="1146.05" y2="148.98" gradientTransform="translate(750.64 -521.61) rotate(33.19)" gradientUnits="userSpaceOnUse"><stop offset="0.3"/><stop offset="0.34" stop-color="#222"/><stop offset="0.41" stop-color="#565656"/><stop offset="0.48" stop-color="#838383"/><stop offset="0.56" stop-color="#a9a9a9"/><stop offset="0.63" stop-color="#c8c8c8"/><stop offset="0.71" stop-color="#e0e0e0"/><stop offset="0.8" stop-color="#f2f2f2"/><stop offset="0.89" stop-color="#fcfcfc"/><stop offset="1" stop-color="#fff"/></linearGradient><mask id="mask" x="72.84" y="66.25" width="2010.42" height="2010.42" maskUnits="userSpaceOnUse"><circle class="cls-1" cx="1078.05" cy="1071.46" r="1005.01" transform="translate(-441.88 1076.12) rotate(-45)"/></mask><radialGradient id="radial-gradient" cx="1146.05" cy="1154.02" r="1005.03" gradientTransform="translate(750.64 -521.61) rotate(33.19)" gradientUnits="userSpaceOnUse"><stop offset="0.74" stop-color="#fff"/><stop offset="0.77" stop-color="#fcfcfb"/><stop offset="0.8" stop-color="#f3f2f1"/><stop offset="0.82" stop-color="#e4e1de"/><stop offset="0.85" stop-color="#cec9c5"/><stop offset="0.87" stop-color="#b2aba4"/><stop offset="0.89" stop-color="#998f86"/><stop offset="0.96" stop-color="#422b17"/><stop offset="0.96" stop-color="#3a220d"/></radialGradient><radialGradient id="radial-gradient-2" cx="1074.1" cy="1110.43" r="419.57" gradientTransform="matrix(0.68, 0.73, -0.73, 0.68, 1167.51, -419.73)" gradientUnits="userSpaceOnUse"><stop offset="0.8" stop-opacity="0.7"/><stop offset="0.92" stop-opacity="0.5"/><stop offset="1" stop-opacity="0"/></radialGradient><linearGradient id="linear-gradient-2" x1="1074.83" y1="1447.82" x2="1074.83" y2="611.98" gradientTransform="matrix(0.68, 0.73, -0.73, 0.68, 1124.37, -440.08)" gradientUnits="userSpaceOnUse"><stop offset="0" stop-color="#c28434"/><stop offset="0.54" stop-color="#eed08f"/><stop offset="0.79" stop-color="#ffefb3"/></linearGradient><linearGradient id="linear-gradient-3" x1="1074.83" y1="1426.19" x2="1074.83" y2="635.59" gradientTransform="matrix(0.68, 0.73, -0.73, 0.68, 1124.37, -440.08)" gradientUnits="userSpaceOnUse"><stop offset="0" stop-color="#e6c493"/><stop offset="0.42" stop-color="#bd955d"/><stop offset="0.45" stop-color="#c69f68"/><stop offset="0.52" stop-color="#d4af7b"/><stop offset="0.61" stop-color="#debb89"/><stop offset="0.71" stop-color="#e4c291"/><stop offset="0.92" stop-color="#e6c493"/></linearGradient><linearGradient id="linear-gradient-4" x1="1132.17" y1="90.24" x2="1180.48" y2="245.8" gradientTransform="matrix(0.99, 0.12, -0.12, 0.99, -225.72, -204.54)" gradientUnits="userSpaceOnUse"><stop offset="0.33" stop-color="#ffd845"/><stop offset="0.34" stop-color="#ffcc45"/><stop offset="0.36" stop-color="#ffad45"/><stop offset="0.38" stop-color="#ff9845"/><stop offset="0.4" stop-color="#ff8a45"/><stop offset="0.42" stop-color="#ff8645"/><stop offset="0.45" stop-color="#ff9545"/><stop offset="0.5" stop-color="#ffad45"/><stop offset="0.57" stop-color="#ffc045"/><stop offset="0.64" stop-color="#ffce45"/><stop offset="0.74" stop-color="#ffd645"/><stop offset="0.92" stop-color="#ffd845"/></linearGradient><linearGradient id="linear-gradient-5" x1="923.3" y1="177.89" x2="872.63" y2="11.3" gradientTransform="translate(76.19 -281.65) rotate(18.76)" gradientUnits="userSpaceOnUse"><stop offset="0.29" stop-color="#c28434"/><stop offset="0.29" stop-color="#c38536"/><stop offset="0.36" stop-color="#d5a65c"/><stop offset="0.44" stop-color="#e4c07c"/><stop offset="0.51" stop-color="#f0d594"/><stop offset="0.59" stop-color="#f8e4a5"/><stop offset="0.68" stop-color="#fdecb0"/><stop offset="0.79" stop-color="#ffefb3"/></linearGradient></defs><g class="cls-2"><g id="Layer_2" data-name="Layer 2"><g id="Layer_5" data-name="Layer 5"><g class="cls-3"><circle class="cls-4" cx="1078.05" cy="1071.46" r="1005.01" transform="translate(-441.88 1076.12) rotate(-45)"/></g><circle class="cls-5" cx="1085.61" cy="1122.95" r="419.56" transform="translate(-476.08 1096.55) rotate(-45)"/><circle class="cls-6" cx="1088.61" cy="1060.71" r="419.56" transform="translate(-431.19 1080.44) rotate(-45)"/><circle class="cls-7" cx="1088.61" cy="1060.71" r="396.85" transform="translate(-431.19 1080.44) rotate(-45)"/><circle class="cls-8" cx="1088.61" cy="1060.71" r="396.85" transform="translate(-431.19 1080.44) rotate(-45)"/><path class="cls-9" d="M953.63,57c5.51,31.15-36,127.53-36,127.53S846.33,108.1,840.82,77A57.28,57.28,0,1,1,953.63,57Z"/><path class="cls-10" d="M903.05,17.74h0a49.88,49.88,0,0,1,43,40.59c3.69,20.88-18,80.29-30.9,112-22.76-25.43-63-73.85-66.69-94.75a49.56,49.56,0,0,1,40.16-57.43,49.77,49.77,0,0,1,14.46-.43Zm.91-7.67A57.31,57.31,0,0,0,840.82,77c5.51,31.15,76.76,107.57,76.76,107.57s41.56-96.38,36-127.53A57.31,57.31,0,0,0,904,10.07Z"/><g id="Layer_2-2" data-name="Layer 2"><g class="cls-11"><circle class="cls-12" cx="1074.7" cy="1074.7" r="1074.41" transform="translate(-445.16 1074.7) rotate(-45)"/></g><g class="cls-13"><circle class="cls-14" cx="1074.7" cy="1074.7" r="1074.41" transform="translate(-445.16 1074.7) rotate(-45)"/></g></g></g></g></g></svg>